<svg width="689" height="118" viewBox="0 0 689 118" fill="none" xmlns="http://www.w3.org/2000/svg">
<g opacity="0.503176" clip-path="url(#clip0_1_185)">
<path d="M84.074 53.792C88.714 53.792 92.794 54.768 96.314 56.72C99.866 58.64 102.634 61.312 104.618 64.736C106.634 68.16 107.642 72.112 107.642 76.592C107.642 80.944 106.602 84.8 104.522 88.16C102.442 91.52 99.578 94.176 95.93 96.128C92.282 98.048 88.074 99.008 83.306 99.008C78.698 99.008 74.618 98.064 71.066 96.176C67.514 94.256 64.73 91.616 62.714 88.256C60.73 84.864 59.738 80.96 59.738 76.544C59.738 72.192 60.794 68.304 62.906 64.88C65.018 61.456 67.914 58.752 71.594 56.768C75.274 54.784 79.434 53.792 84.074 53.792ZM86.858 97.616C88.042 97.456 88.906 96.576 89.45 94.976C90.026 93.344 90.298 90.928 90.266 87.728C90.234 84.528 89.85 80.512 89.114 75.68C88.41 70.848 87.626 66.896 86.762 63.824C85.898 60.72 84.954 58.48 83.93 57.104C82.938 55.696 81.85 55.088 80.666 55.28C79.546 55.472 78.698 56.384 78.122 58.016C77.578 59.616 77.338 62 77.402 65.168C77.466 68.336 77.834 72.352 78.506 77.216C79.21 82.048 79.978 86 80.81 89.072C81.674 92.144 82.602 94.384 83.594 95.792C84.618 97.2 85.706 97.808 86.858 97.616ZM141.46 96.368V89.696L141.412 89.36V61.232C141.412 60.912 141.348 60.688 141.22 60.56C141.092 60.4 140.868 60.32 140.548 60.32L138.724 60.272C138.468 60.272 138.292 60.224 138.196 60.128C138.1 60.032 138.052 59.904 138.052 59.744C138.052 59.552 138.116 59.424 138.244 59.36C138.372 59.264 138.532 59.184 138.724 59.12L156.436 54.128C156.852 54 157.172 53.92 157.396 53.888C157.62 53.824 157.844 53.792 158.068 53.792C158.388 53.792 158.612 53.888 158.74 54.08C158.9 54.24 158.98 54.448 158.98 54.704V94.496C158.98 95.04 159.06 95.472 159.22 95.792C159.412 96.112 159.716 96.32 160.132 96.416L161.908 96.848C162.164 96.912 162.34 97.008 162.436 97.136C162.532 97.232 162.58 97.344 162.58 97.472C162.58 97.632 162.516 97.76 162.388 97.856C162.292 97.952 162.132 98 161.908 98H143.092C142.58 98 142.18 97.856 141.892 97.568C141.604 97.248 141.46 96.848 141.46 96.368ZM113.62 87.296V61.232C113.62 60.912 113.54 60.688 113.38 60.56C113.252 60.4 113.028 60.32 112.708 60.32L110.932 60.272C110.676 60.272 110.5 60.224 110.404 60.128C110.308 60.032 110.26 59.904 110.26 59.744C110.26 59.552 110.308 59.424 110.404 59.36C110.532 59.264 110.692 59.184 110.884 59.12L128.596 54.128C129.076 54 129.412 53.92 129.604 53.888C129.796 53.824 130.004 53.792 130.228 53.792C130.548 53.792 130.788 53.888 130.948 54.08C131.108 54.24 131.188 54.448 131.188 54.704V85.424C131.188 87.376 131.556 88.816 132.292 89.744C133.06 90.64 134.212 91.088 135.748 91.088C136.708 91.088 137.684 90.896 138.676 90.512C139.668 90.128 140.564 89.584 141.364 88.88L143.188 87.296L144.004 88.16L142.084 89.84C138.436 93.008 135.092 95.328 132.052 96.8C129.012 98.272 126.292 99.008 123.892 99.008C120.852 99.008 118.372 98.08 116.452 96.224C114.564 94.336 113.62 91.36 113.62 87.296ZM185.698 72.08C185.698 68.048 186.322 64.688 187.57 62C188.85 59.28 190.482 57.232 192.466 55.856C194.45 54.48 196.53 53.792 198.706 53.792C201.394 53.792 203.426 54.672 204.802 56.432C206.21 58.16 206.914 60.8 206.914 64.352C206.914 67.872 206.098 70.48 204.466 72.176C202.834 73.84 200.786 74.672 198.322 74.672C196.018 74.672 194.338 74.048 193.282 72.8C192.226 71.552 191.65 69.76 191.554 67.424L191.458 65.6C191.426 64.896 191.266 64.32 190.978 63.872C190.722 63.424 190.258 63.2 189.586 63.2C188.978 63.2 188.434 63.52 187.954 64.16C187.506 64.768 187.154 65.76 186.898 67.136C186.642 68.512 186.514 70.288 186.514 72.464L185.698 72.08ZM186.418 55.04L186.514 69.536V94.016C186.514 94.496 186.626 94.912 186.85 95.264C187.074 95.616 187.41 95.84 187.858 95.936L192.514 96.896C192.738 96.928 192.898 96.992 192.994 97.088C193.09 97.184 193.138 97.312 193.138 97.472C193.138 97.632 193.074 97.76 192.946 97.856C192.818 97.952 192.61 98 192.322 98H166.114C165.858 98 165.666 97.952 165.538 97.856C165.41 97.728 165.346 97.6 165.346 97.472C165.346 97.344 165.41 97.216 165.538 97.088C165.698 96.96 165.89 96.864 166.114 96.8L167.794 96.416C168.242 96.32 168.546 96.128 168.706 95.84C168.866 95.552 168.946 95.184 168.946 94.736V60.8C168.946 60.448 168.882 60.176 168.754 59.984C168.626 59.792 168.418 59.696 168.13 59.696H166.066C165.906 59.664 165.762 59.6 165.634 59.504C165.538 59.408 165.49 59.296 165.49 59.168C165.49 59.008 165.554 58.88 165.682 58.784C165.81 58.656 166.002 58.56 166.258 58.496L183.97 54.368C184.386 54.272 184.706 54.208 184.93 54.176C185.154 54.112 185.378 54.08 185.602 54.08C185.89 54.08 186.098 54.176 186.226 54.368C186.354 54.56 186.418 54.784 186.418 55.04ZM264.941 66.608C264.941 69.008 264.237 70.928 262.829 72.368C261.453 73.808 259.517 74.528 257.021 74.528C254.493 74.528 252.525 73.792 251.117 72.32C249.709 70.816 249.005 68.64 249.005 65.792V61.232C249.005 59.28 248.669 57.808 247.997 56.816C247.357 55.824 246.493 55.328 245.405 55.328C244.285 55.328 243.293 55.872 242.429 56.96C241.597 58.048 240.957 59.648 240.509 61.76C240.093 63.84 239.885 66.4 239.885 69.44C239.885 73.504 240.413 76.944 241.469 79.76C242.557 82.544 244.061 84.656 245.981 86.096C247.933 87.504 250.157 88.208 252.653 88.208C255.469 88.208 257.821 87.728 259.709 86.768C261.629 85.776 262.877 84.176 263.453 81.968C263.549 81.776 263.645 81.648 263.741 81.584C263.837 81.488 263.949 81.456 264.077 81.488C264.205 81.52 264.301 81.6 264.365 81.728C264.429 81.856 264.445 82.016 264.413 82.208C263.901 85.696 262.749 88.688 260.957 91.184C259.165 93.68 256.829 95.616 253.949 96.992C251.101 98.336 247.789 99.008 244.013 99.008C240.013 99.008 236.445 98.208 233.309 96.608C230.205 94.976 227.757 92.576 225.965 89.408C224.173 86.24 223.277 82.32 223.277 77.648C223.277 72.976 224.269 68.864 226.253 65.312C228.269 61.728 231.021 58.912 234.509 56.864C238.029 54.816 242.077 53.792 246.653 53.792C250.685 53.792 254.045 54.352 256.733 55.472C259.453 56.592 261.501 58.112 262.877 60.032C264.253 61.952 264.941 64.144 264.941 66.608ZM292.105 53.792C296.745 53.792 300.825 54.768 304.345 56.72C307.897 58.64 310.665 61.312 312.649 64.736C314.665 68.16 315.673 72.112 315.673 76.592C315.673 80.944 314.633 84.8 312.553 88.16C310.473 91.52 307.609 94.176 303.961 96.128C300.313 98.048 296.105 99.008 291.337 99.008C286.729 99.008 282.649 98.064 279.097 96.176C275.545 94.256 272.761 91.616 270.745 88.256C268.761 84.864 267.769 80.96 267.769 76.544C267.769 72.192 268.825 68.304 270.937 64.88C273.049 61.456 275.945 58.752 279.625 56.768C283.305 54.784 287.465 53.792 292.105 53.792ZM294.889 97.616C296.073 97.456 296.937 96.576 297.481 94.976C298.057 93.344 298.329 90.928 298.297 87.728C298.265 84.528 297.881 80.512 297.145 75.68C296.441 70.848 295.657 66.896 294.793 63.824C293.929 60.72 292.985 58.48 291.961 57.104C290.969 55.696 289.881 55.088 288.697 55.28C287.577 55.472 286.729 56.384 286.153 58.016C285.609 59.616 285.369 62 285.433 65.168C285.497 68.336 285.865 72.352 286.537 77.216C287.241 82.048 288.009 86 288.841 89.072C289.705 92.144 290.633 94.384 291.625 95.792C292.649 97.2 293.737 97.808 294.889 97.616ZM340.18 26.432V94.496C340.18 95.04 340.26 95.472 340.42 95.792C340.612 96.112 340.916 96.32 341.332 96.416L343.108 96.848C343.364 96.912 343.54 97.008 343.635 97.136C343.732 97.232 343.78 97.344 343.78 97.472C343.78 97.632 343.716 97.76 343.588 97.856C343.492 97.952 343.316 98 343.06 98H319.684C319.46 98 319.284 97.952 319.156 97.856C319.028 97.76 318.964 97.632 318.964 97.472C318.964 97.344 319.012 97.232 319.108 97.136C319.204 97.008 319.38 96.912 319.636 96.848L321.412 96.416C321.86 96.32 322.164 96.112 322.324 95.792C322.516 95.472 322.612 95.04 322.612 94.496V32.96C322.612 32.64 322.532 32.416 322.372 32.288C322.244 32.128 322.02 32.048 321.7 32.048L319.924 32C319.668 32 319.492 31.952 319.396 31.856C319.3 31.76 319.252 31.632 319.252 31.472C319.252 31.28 319.3 31.152 319.396 31.088C319.524 30.992 319.684 30.912 319.876 30.848L337.588 25.856C338.068 25.728 338.404 25.648 338.596 25.616C338.788 25.552 338.996 25.52 339.22 25.52C339.54 25.52 339.78 25.616 339.94 25.808C340.1 25.968 340.18 26.176 340.18 26.432ZM368.023 26.432V94.496C368.023 95.04 368.103 95.472 368.263 95.792C368.455 96.112 368.759 96.32 369.175 96.416L370.951 96.848C371.207 96.912 371.383 97.008 371.479 97.136C371.575 97.232 371.623 97.344 371.623 97.472C371.623 97.632 371.559 97.76 371.431 97.856C371.335 97.952 371.159 98 370.903 98H347.527C347.303 98 347.127 97.952 346.999 97.856C346.871 97.76 346.807 97.632 346.807 97.472C346.807 97.344 346.855 97.232 346.951 97.136C347.047 97.008 347.223 96.912 347.479 96.848L349.255 96.416C349.703 96.32 350.007 96.112 350.167 95.792C350.359 95.472 350.455 95.04 350.455 94.496V32.96C350.455 32.64 350.375 32.416 350.215 32.288C350.087 32.128 349.863 32.048 349.543 32.048L347.767 32C347.511 32 347.335 31.952 347.239 31.856C347.143 31.76 347.095 31.632 347.095 31.472C347.095 31.28 347.143 31.152 347.239 31.088C347.367 30.992 347.527 30.912 347.719 30.848L365.431 25.856C365.911 25.728 366.247 25.648 366.439 25.616C366.631 25.552 366.839 25.52 367.063 25.52C367.383 25.52 367.623 25.616 367.783 25.808C367.943 25.968 368.023 26.176 368.023 26.432ZM417.851 73.856C417.851 74.304 417.707 74.672 417.419 74.96C417.163 75.248 416.747 75.392 416.171 75.392H386.219V74H399.515C400.155 74 400.475 73.616 400.475 72.848C400.475 66.544 399.899 62.032 398.747 59.312C397.595 56.592 396.395 55.232 395.147 55.232C394.251 55.232 393.435 55.68 392.699 56.576C391.963 57.472 391.355 59.024 390.875 61.232C390.395 63.44 390.155 66.48 390.155 70.352C390.155 76.912 391.483 81.696 394.139 84.704C396.795 87.712 400.331 89.216 404.747 89.216C408.235 89.216 411.067 88.368 413.243 86.672C415.451 84.976 416.603 82.688 416.699 79.808C416.763 79.616 416.843 79.488 416.939 79.424C417.035 79.36 417.115 79.328 417.179 79.328C417.307 79.328 417.419 79.376 417.515 79.472C417.611 79.568 417.659 79.728 417.659 79.952C417.659 83.568 416.731 86.816 414.875 89.696C413.051 92.544 410.539 94.816 407.339 96.512C404.171 98.176 400.571 99.008 396.539 99.008C392.123 99.008 388.219 98.08 384.827 96.224C381.435 94.336 378.763 91.744 376.811 88.448C374.891 85.12 373.931 81.312 373.931 77.024C373.931 72.192 374.875 68.048 376.763 64.592C378.683 61.104 381.387 58.432 384.875 56.576C388.395 54.72 392.539 53.792 397.307 53.792C401.531 53.792 405.179 54.672 408.251 56.432C411.323 58.16 413.691 60.544 415.355 63.584C417.019 66.592 417.851 70.016 417.851 73.856ZM462.097 66.608C462.097 69.008 461.393 70.928 459.985 72.368C458.609 73.808 456.673 74.528 454.177 74.528C451.649 74.528 449.681 73.792 448.273 72.32C446.865 70.816 446.161 68.64 446.161 65.792V61.232C446.161 59.28 445.825 57.808 445.153 56.816C444.513 55.824 443.649 55.328 442.561 55.328C441.441 55.328 440.449 55.872 439.585 56.96C438.753 58.048 438.113 59.648 437.665 61.76C437.249 63.84 437.041 66.4 437.041 69.44C437.041 73.504 437.569 76.944 438.625 79.76C439.713 82.544 441.217 84.656 443.137 86.096C445.089 87.504 447.313 88.208 449.809 88.208C452.625 88.208 454.977 87.728 456.865 86.768C458.785 85.776 460.033 84.176 460.609 81.968C460.705 81.776 460.801 81.648 460.897 81.584C460.993 81.488 461.105 81.456 461.233 81.488C461.361 81.52 461.457 81.6 461.521 81.728C461.585 81.856 461.601 82.016 461.569 82.208C461.057 85.696 459.905 88.688 458.113 91.184C456.321 93.68 453.985 95.616 451.105 96.992C448.257 98.336 444.945 99.008 441.169 99.008C437.169 99.008 433.601 98.208 430.465 96.608C427.361 94.976 424.913 92.576 423.121 89.408C421.329 86.24 420.433 82.32 420.433 77.648C420.433 72.976 421.425 68.864 423.409 65.312C425.425 61.728 428.177 58.912 431.665 56.864C435.185 54.816 439.233 53.792 443.809 53.792C447.841 53.792 451.201 54.352 453.889 55.472C456.609 56.592 458.657 58.112 460.033 60.032C461.409 61.952 462.097 64.144 462.097 66.608ZM467.326 56.912L463.918 55.952C463.662 55.888 463.486 55.808 463.389 55.712C463.293 55.584 463.245 55.456 463.245 55.328C463.245 55.168 463.309 55.04 463.438 54.944C463.534 54.848 463.662 54.8 463.822 54.8H467.566C467.694 54.8 467.822 54.768 467.95 54.704C468.11 54.64 468.302 54.528 468.526 54.368L482.158 44.624C482.446 44.368 482.75 44.16 483.07 44C483.422 43.84 483.71 43.76 483.934 43.76C484.222 43.76 484.462 43.872 484.654 44.096C484.846 44.288 484.942 44.592 484.942 45.008V83.84C484.942 86.656 485.438 88.768 486.43 90.176C487.454 91.552 488.83 92.24 490.557 92.24C491.166 92.24 491.726 92.128 492.238 91.904C492.782 91.68 493.278 91.344 493.726 90.896C494.174 90.416 494.574 89.792 494.926 89.024C495.31 88.256 495.63 87.328 495.886 86.24C495.982 86.016 496.126 85.92 496.318 85.952C496.542 85.984 496.622 86.144 496.558 86.432C496.11 89.216 495.326 91.536 494.206 93.392C493.118 95.248 491.614 96.656 489.694 97.616C487.806 98.544 485.454 99.008 482.638 99.008C477.87 99.008 474.238 97.904 471.742 95.696C469.246 93.488 467.998 90.096 467.998 85.52V57.92C467.998 57.568 467.95 57.328 467.854 57.2C467.79 57.04 467.614 56.944 467.326 56.912ZM479.806 56.384L480.334 54.8H496.126C496.35 54.8 496.51 54.832 496.606 54.896C496.734 54.96 496.798 55.088 496.798 55.28C496.798 55.568 496.638 55.824 496.318 56.048C495.998 56.272 495.534 56.384 494.926 56.384H479.806ZM519.606 54.512V94.496C519.606 95.04 519.686 95.472 519.846 95.792C520.038 96.112 520.342 96.32 520.758 96.416L522.534 96.848C522.79 96.912 522.966 97.008 523.062 97.136C523.158 97.232 523.206 97.344 523.206 97.472C523.206 97.632 523.142 97.76 523.014 97.856C522.918 97.952 522.758 98 522.534 98H499.11C498.918 98 498.758 97.952 498.63 97.856C498.502 97.76 498.438 97.632 498.438 97.472C498.438 97.344 498.486 97.232 498.582 97.136C498.678 97.008 498.854 96.912 499.11 96.848L500.886 96.416C501.334 96.32 501.638 96.112 501.798 95.792C501.958 95.472 502.038 95.04 502.038 94.496V61.04C502.038 60.752 501.974 60.528 501.846 60.368C501.718 60.208 501.494 60.128 501.174 60.128H499.35C499.094 60.096 498.918 60.032 498.822 59.936C498.726 59.84 498.678 59.712 498.678 59.552C498.678 59.392 498.742 59.264 498.87 59.168C498.998 59.072 499.158 58.992 499.35 58.928L517.062 53.936C517.51 53.808 517.83 53.728 518.022 53.696C518.246 53.632 518.47 53.6 518.694 53.6C519.014 53.6 519.238 53.696 519.366 53.888C519.526 54.048 519.606 54.256 519.606 54.512ZM510.582 50.768C507.638 50.768 505.238 49.856 503.382 48.032C501.558 46.176 500.646 43.904 500.646 41.216C500.646 38.496 501.558 36.224 503.382 34.4C505.238 32.544 507.638 31.616 510.582 31.616C513.558 31.616 515.99 32.544 517.878 34.4C519.766 36.224 520.71 38.496 520.71 41.216C520.71 43.904 519.766 46.176 517.878 48.032C515.99 49.856 513.558 50.768 510.582 50.768ZM549.918 53.792C554.558 53.792 558.638 54.768 562.158 56.72C565.71 58.64 568.478 61.312 570.462 64.736C572.478 68.16 573.486 72.112 573.486 76.592C573.486 80.944 572.446 84.8 570.366 88.16C568.286 91.52 565.422 94.176 561.774 96.128C558.126 98.048 553.918 99.008 549.15 99.008C544.542 99.008 540.462 98.064 536.91 96.176C533.358 94.256 530.574 91.616 528.558 88.256C526.574 84.864 525.582 80.96 525.582 76.544C525.582 72.192 526.638 68.304 528.75 64.88C530.862 61.456 533.758 58.752 537.438 56.768C541.118 54.784 545.278 53.792 549.918 53.792ZM552.702 97.616C553.886 97.456 554.75 96.576 555.294 94.976C555.87 93.344 556.142 90.928 556.11 87.728C556.078 84.528 555.694 80.512 554.958 75.68C554.254 70.848 553.47 66.896 552.606 63.824C551.742 60.72 550.798 58.48 549.774 57.104C548.782 55.696 547.694 55.088 546.51 55.28C545.39 55.472 544.542 56.384 543.966 58.016C543.422 59.616 543.182 62 543.246 65.168C543.31 68.336 543.678 72.352 544.35 77.216C545.054 82.048 545.822 86 546.654 89.072C547.518 92.144 548.446 94.384 549.438 95.792C550.462 97.2 551.55 97.808 552.702 97.616ZM597.512 54.512V94.496C597.512 95.04 597.592 95.472 597.752 95.792C597.944 96.112 598.248 96.32 598.664 96.416L600.44 96.848C600.888 96.976 601.112 97.168 601.112 97.424C601.112 97.808 600.872 98 600.392 98H577.016C576.824 98 576.664 97.952 576.536 97.856C576.408 97.76 576.344 97.632 576.344 97.472C576.344 97.344 576.392 97.232 576.488 97.136C576.584 97.008 576.76 96.912 577.016 96.848L578.792 96.416C579.24 96.32 579.544 96.112 579.704 95.792C579.864 95.472 579.944 95.04 579.944 94.496V61.04C579.944 60.752 579.88 60.528 579.752 60.368C579.624 60.208 579.4 60.128 579.08 60.128H577.256C577 60.096 576.824 60.032 576.728 59.936C576.632 59.84 576.584 59.712 576.584 59.552C576.584 59.392 576.648 59.264 576.776 59.168C576.904 59.072 577.064 58.992 577.256 58.928L594.968 53.936C595.416 53.808 595.736 53.728 595.928 53.696C596.152 53.632 596.376 53.6 596.6 53.6C596.92 53.6 597.144 53.696 597.272 53.888C597.432 54.048 597.512 54.256 597.512 54.512ZM596.072 65.456L595.256 64.592L597.128 62.96C600.584 59.92 603.656 57.632 606.344 56.096C609.032 54.56 611.432 53.792 613.544 53.792C616.488 53.792 618.776 54.64 620.408 56.336C622.04 58.032 623.048 60.72 623.432 64.4L626.6 94.496C626.664 95.04 626.76 95.472 626.888 95.792C627.048 96.112 627.336 96.32 627.752 96.416L629.528 96.848C629.784 96.912 629.96 97.008 630.056 97.136C630.152 97.232 630.2 97.344 630.2 97.472C630.2 97.632 630.136 97.76 630.008 97.856C629.912 97.952 629.752 98 629.528 98H605.72C605.272 98 605.048 97.808 605.048 97.424C605.048 97.168 605.272 96.976 605.72 96.848L607.448 96.416C607.896 96.32 608.216 96.112 608.408 95.792C608.632 95.472 608.712 95.04 608.648 94.496L606.152 66.272C605.992 64.672 605.64 63.504 605.096 62.768C604.584 62.032 603.736 61.664 602.552 61.664C601.752 61.664 600.968 61.872 600.2 62.288C599.432 62.672 598.664 63.2 597.896 63.872L596.072 65.456Z" fill="#83888F"/>
<rect width="689" height="118" fill="url(#paint0_linear_1_185)"/>
</g>
<defs>
<linearGradient id="paint0_linear_1_185" x1="0" y1="0" x2="0" y2="118" gradientUnits="userSpaceOnUse">
<stop stop-color="#FEFCF7" stop-opacity="0.01"/>
<stop offset="1" stop-color="#FEFCF7"/>
</linearGradient>
<clipPath id="clip0_1_185">
<rect width="689" height="118" fill="white"/>
</clipPath>
</defs>
</svg>
