<svg width="375" height="72" viewBox="0 0 375 72" fill="none" xmlns="http://www.w3.org/2000/svg">
<g clip-path="url(#clip0_1_741)">
<path d="M60.5695 30.38C62.7695 30.38 64.6962 30.8067 66.3495 31.66C68.0162 32.5 69.3095 33.6867 70.2295 35.22C71.1495 36.74 71.6095 38.5133 71.6095 40.54C71.6095 42.42 71.1229 44.1133 70.1495 45.62C69.1895 47.1267 67.8562 48.3267 66.1495 49.22C64.4562 50.1 62.4895 50.54 60.2495 50.54C58.0362 50.54 56.1029 50.1133 54.4495 49.26C52.7962 48.3933 51.5095 47.2 50.5895 45.68C49.6695 44.16 49.2095 42.4 49.2095 40.4C49.2095 38.48 49.6895 36.7667 50.6495 35.26C51.6229 33.7533 52.9562 32.5667 54.6495 31.7C56.3562 30.82 58.3295 30.38 60.5695 30.38ZM61.9695 48.04C62.4762 47.9333 62.8562 47.58 63.1095 46.98C63.3762 46.3667 63.4962 45.4867 63.4695 44.34C63.4429 43.18 63.2495 41.7133 62.8895 39.94C62.5562 38.22 62.1762 36.82 61.7495 35.74C61.3362 34.66 60.8829 33.88 60.3895 33.4C59.8962 32.92 59.3829 32.7467 58.8495 32.88C58.3429 32.9867 57.9562 33.3467 57.6895 33.96C57.4362 34.56 57.3229 35.4333 57.3495 36.58C57.3895 37.7267 57.5829 39.1933 57.9295 40.98C58.2629 42.6867 58.6429 44.0867 59.0695 45.18C59.4962 46.26 59.9495 47.0333 60.4295 47.5C60.9229 47.9667 61.4362 48.1467 61.9695 48.04ZM87.9664 46.5V45.8L87.7264 45.78V36.1C87.7264 35.7267 87.6731 35.46 87.5664 35.3C87.4597 35.14 87.3064 35.0333 87.1064 34.98L86.6064 34.86C86.3531 34.78 86.1664 34.6667 86.0464 34.52C85.9397 34.3733 85.8864 34.18 85.8864 33.94C85.8864 33.66 85.9597 33.44 86.1064 33.28C86.2664 33.12 86.5531 32.96 86.9664 32.8L91.9264 31.02C92.5131 30.7933 92.9864 30.6333 93.3464 30.54C93.7064 30.4333 94.0597 30.38 94.4064 30.38C94.9264 30.38 95.3197 30.5267 95.5864 30.82C95.8664 31.1133 96.0064 31.48 96.0064 31.92V46.28C96.0064 46.76 96.0464 47.1067 96.1264 47.32C96.2064 47.52 96.3397 47.66 96.5264 47.74L97.0264 47.94C97.2931 48.0467 97.4864 48.1867 97.6064 48.36C97.7264 48.5333 97.7864 48.7333 97.7864 48.96C97.7864 49.2933 97.6797 49.5533 97.4664 49.74C97.2664 49.9133 96.9397 50 96.4864 50H91.0664C90.2531 50 89.5331 49.6533 88.9064 48.96C88.2797 48.2667 87.9664 47.4467 87.9664 46.5ZM75.0264 44.4V36.1C75.0264 35.7267 74.9731 35.46 74.8664 35.3C74.7731 35.14 74.6197 35.0333 74.4064 34.98L73.9064 34.86C73.6664 34.78 73.4864 34.6667 73.3664 34.52C73.2597 34.3733 73.2064 34.18 73.2064 33.94C73.2064 33.66 73.2797 33.44 73.4264 33.28C73.5864 33.12 73.8731 32.96 74.2864 32.8L79.2264 31.02C79.8531 30.78 80.3464 30.6133 80.7064 30.52C81.0664 30.4267 81.3864 30.38 81.6664 30.38C82.2131 30.38 82.6197 30.5267 82.8864 30.82C83.1664 31.1133 83.3064 31.48 83.3064 31.92V43.28C83.3064 44.12 83.4931 44.7533 83.8664 45.18C84.2531 45.5933 84.7931 45.8 85.4864 45.8C85.9264 45.8 86.3797 45.7133 86.8464 45.54C87.3131 45.3667 87.7331 45.12 88.1064 44.8L88.8064 44.18L89.8664 45.3L89.2264 45.88C87.4131 47.5867 85.8197 48.7933 84.4464 49.5C83.0864 50.1933 81.8397 50.54 80.7064 50.54C79.0131 50.54 77.6397 49.98 76.5864 48.86C75.5464 47.74 75.0264 46.2533 75.0264 44.4ZM109.275 39.1C109.275 37.1267 109.542 35.4933 110.075 34.2C110.609 32.9067 111.309 31.9467 112.175 31.32C113.055 30.6933 114.009 30.38 115.035 30.38C116.395 30.38 117.435 30.7933 118.155 31.62C118.889 32.4467 119.255 33.6933 119.255 35.36C119.255 37.0533 118.902 38.3067 118.195 39.12C117.502 39.92 116.609 40.32 115.515 40.32C114.409 40.32 113.582 40.0333 113.035 39.46C112.489 38.8867 112.215 38.0933 112.215 37.08L112.195 36.26C112.182 35.9133 112.109 35.6533 111.975 35.48C111.842 35.2933 111.629 35.2 111.335 35.2C111.069 35.2 110.835 35.32 110.635 35.56C110.435 35.8 110.275 36.1867 110.155 36.72C110.035 37.2533 109.975 37.9667 109.975 38.86L109.275 39.1ZM109.515 31.96L109.975 36.46V46.24C109.975 46.6667 110.035 46.9733 110.155 47.16C110.289 47.3333 110.569 47.4667 110.995 47.56L112.595 47.88C112.942 47.9467 113.195 48.0667 113.355 48.24C113.515 48.4133 113.595 48.6533 113.595 48.96C113.595 49.2933 113.482 49.5533 113.255 49.74C113.029 49.9133 112.702 50 112.275 50H101.235C100.769 50 100.429 49.9067 100.215 49.72C100.015 49.5333 99.9155 49.28 99.9155 48.96C99.9155 48.7333 99.9755 48.5333 100.095 48.36C100.215 48.1867 100.409 48.0467 100.675 47.94L101.175 47.74C101.362 47.66 101.495 47.52 101.575 47.32C101.655 47.1067 101.695 46.7667 101.695 46.3V36.14C101.695 35.7533 101.642 35.48 101.535 35.32C101.442 35.16 101.289 35.0533 101.075 35L100.575 34.88C100.322 34.8 100.135 34.6867 100.015 34.54C99.9088 34.3933 99.8555 34.2 99.8555 33.96C99.8555 33.6933 99.9355 33.48 100.095 33.32C100.255 33.1467 100.535 32.9867 100.935 32.84L105.775 31.14C106.589 30.82 107.175 30.62 107.535 30.54C107.895 30.4467 108.175 30.4 108.375 30.4C108.709 30.4 108.962 30.52 109.135 30.76C109.309 31 109.435 31.4 109.515 31.96ZM148.027 36.4C148.027 37.4133 147.661 38.2667 146.927 38.96C146.194 39.64 145.207 39.98 143.967 39.98C142.754 39.98 141.841 39.6533 141.227 39C140.614 38.3467 140.307 37.4933 140.307 36.44V35.58C140.307 34.7267 140.134 34.06 139.787 33.58C139.441 33.0867 138.987 32.84 138.427 32.84C137.961 32.84 137.527 33.0267 137.127 33.4C136.741 33.76 136.427 34.3133 136.187 35.06C135.947 35.7933 135.827 36.7267 135.827 37.86C135.827 39.4333 136.081 40.7533 136.587 41.82C137.107 42.8733 137.814 43.6733 138.707 44.22C139.601 44.7533 140.627 45.02 141.787 45.02C142.694 45.02 143.501 44.9 144.207 44.66C144.914 44.4067 145.567 43.9533 146.167 43.3C146.487 43.0067 146.734 42.8067 146.907 42.7C147.081 42.5933 147.254 42.54 147.427 42.54C147.654 42.54 147.821 42.66 147.927 42.9C148.034 43.1267 148.087 43.4067 148.087 43.74C148.047 44.9667 147.634 46.1 146.847 47.14C146.061 48.1667 144.981 48.9933 143.607 49.62C142.234 50.2333 140.641 50.54 138.827 50.54C136.854 50.54 135.081 50.1467 133.507 49.36C131.947 48.5733 130.707 47.4733 129.787 46.06C128.881 44.6333 128.427 42.9467 128.427 41C128.427 38.96 128.874 37.14 129.767 35.54C130.674 33.94 131.947 32.68 133.587 31.76C135.227 30.84 137.154 30.38 139.367 30.38C141.167 30.38 142.714 30.6467 144.007 31.18C145.301 31.7133 146.294 32.44 146.987 33.36C147.681 34.2667 148.027 35.28 148.027 36.4ZM161.429 30.38C163.629 30.38 165.556 30.8067 167.209 31.66C168.876 32.5 170.169 33.6867 171.089 35.22C172.009 36.74 172.469 38.5133 172.469 40.54C172.469 42.42 171.982 44.1133 171.009 45.62C170.049 47.1267 168.716 48.3267 167.009 49.22C165.316 50.1 163.349 50.54 161.109 50.54C158.896 50.54 156.962 50.1133 155.309 49.26C153.656 48.3933 152.369 47.2 151.449 45.68C150.529 44.16 150.069 42.4 150.069 40.4C150.069 38.48 150.549 36.7667 151.509 35.26C152.482 33.7533 153.816 32.5667 155.509 31.7C157.216 30.82 159.189 30.38 161.429 30.38ZM162.829 48.04C163.336 47.9333 163.716 47.58 163.969 46.98C164.236 46.3667 164.356 45.4867 164.329 44.34C164.302 43.18 164.109 41.7133 163.749 39.94C163.416 38.22 163.036 36.82 162.609 35.74C162.196 34.66 161.742 33.88 161.249 33.4C160.756 32.92 160.242 32.7467 159.709 32.88C159.202 32.9867 158.816 33.3467 158.549 33.96C158.296 34.56 158.182 35.4333 158.209 36.58C158.249 37.7267 158.442 39.1933 158.789 40.98C159.122 42.6867 159.502 44.0867 159.929 45.18C160.356 46.26 160.809 47.0333 161.289 47.5C161.782 47.9667 162.296 48.1467 162.829 48.04ZM184.566 21.36V46.28C184.566 46.76 184.606 47.1067 184.686 47.32C184.766 47.52 184.906 47.66 185.106 47.74L185.586 47.94C185.866 48.0467 186.059 48.1867 186.166 48.36C186.286 48.5333 186.346 48.7333 186.346 48.96C186.346 49.2933 186.239 49.5533 186.026 49.74C185.826 49.9133 185.499 50 185.046 50H175.826C175.372 50 175.039 49.9133 174.826 49.74C174.612 49.5533 174.506 49.2933 174.506 48.96C174.506 48.7333 174.566 48.5333 174.686 48.36C174.806 48.1867 174.999 48.0467 175.266 47.94L175.766 47.74C175.966 47.66 176.099 47.52 176.166 47.32C176.246 47.1067 176.286 46.76 176.286 46.28V25.52C176.286 25.1467 176.232 24.88 176.126 24.72C176.032 24.56 175.879 24.4533 175.666 24.4L175.166 24.28C174.926 24.2 174.746 24.0867 174.626 23.94C174.519 23.7933 174.466 23.6 174.466 23.36C174.466 23.0933 174.539 22.88 174.686 22.72C174.846 22.56 175.132 22.4 175.546 22.24L180.486 20.46C181.112 20.22 181.606 20.0533 181.966 19.96C182.326 19.8533 182.646 19.8 182.926 19.8C183.472 19.8 183.879 19.9467 184.146 20.24C184.426 20.5333 184.566 20.9067 184.566 21.36ZM198.199 21.36V46.28C198.199 46.76 198.239 47.1067 198.319 47.32C198.399 47.52 198.539 47.66 198.739 47.74L199.219 47.94C199.499 48.0467 199.692 48.1867 199.799 48.36C199.919 48.5333 199.979 48.7333 199.979 48.96C199.979 49.2933 199.872 49.5533 199.659 49.74C199.459 49.9133 199.132 50 198.679 50H189.459C189.005 50 188.672 49.9133 188.459 49.74C188.245 49.5533 188.139 49.2933 188.139 48.96C188.139 48.7333 188.199 48.5333 188.319 48.36C188.439 48.1867 188.632 48.0467 188.899 47.94L189.399 47.74C189.599 47.66 189.732 47.52 189.799 47.32C189.879 47.1067 189.919 46.76 189.919 46.28V25.52C189.919 25.1467 189.865 24.88 189.759 24.72C189.665 24.56 189.512 24.4533 189.299 24.4L188.799 24.28C188.559 24.2 188.379 24.0867 188.259 23.94C188.152 23.7933 188.099 23.6 188.099 23.36C188.099 23.0933 188.172 22.88 188.319 22.72C188.479 22.56 188.765 22.4 189.179 22.24L194.119 20.46C194.745 20.22 195.239 20.0533 195.599 19.96C195.959 19.8533 196.279 19.8 196.559 19.8C197.105 19.8 197.512 19.9467 197.779 20.24C198.059 20.5333 198.199 20.9067 198.199 21.36ZM221.651 38.2C221.651 39 221.431 39.6267 220.991 40.08C220.551 40.52 219.918 40.74 219.091 40.74H207.131V38.92H212.491C213.145 38.92 213.471 38.6067 213.471 37.98C213.471 36.14 213.271 34.8267 212.871 34.04C212.471 33.24 211.958 32.84 211.331 32.84C210.891 32.84 210.485 33.02 210.111 33.38C209.751 33.7267 209.465 34.2733 209.251 35.02C209.038 35.7667 208.931 36.7333 208.931 37.92C208.931 40.4 209.478 42.2133 210.571 43.36C211.665 44.5067 213.158 45.08 215.051 45.08C216.025 45.08 216.885 44.94 217.631 44.66C218.391 44.3667 219.065 43.86 219.651 43.14C219.971 42.8467 220.218 42.6467 220.391 42.54C220.565 42.4333 220.731 42.38 220.891 42.38C221.118 42.38 221.285 42.4933 221.391 42.72C221.511 42.9467 221.571 43.2333 221.571 43.58C221.571 44.82 221.171 45.9733 220.371 47.04C219.571 48.0933 218.458 48.94 217.031 49.58C215.618 50.22 213.978 50.54 212.111 50.54C210.111 50.54 208.318 50.14 206.731 49.34C205.145 48.54 203.885 47.42 202.951 45.98C202.031 44.54 201.571 42.8667 201.571 40.96C201.571 38.8133 201.998 36.9533 202.851 35.38C203.705 33.7933 204.945 32.5667 206.571 31.7C208.198 30.82 210.151 30.38 212.431 30.38C214.445 30.38 216.138 30.72 217.511 31.4C218.885 32.0667 219.918 32.9933 220.611 34.18C221.305 35.3533 221.651 36.6933 221.651 38.2ZM243.066 36.4C243.066 37.4133 242.7 38.2667 241.966 38.96C241.233 39.64 240.246 39.98 239.006 39.98C237.793 39.98 236.88 39.6533 236.266 39C235.653 38.3467 235.346 37.4933 235.346 36.44V35.58C235.346 34.7267 235.173 34.06 234.826 33.58C234.48 33.0867 234.026 32.84 233.466 32.84C233 32.84 232.566 33.0267 232.166 33.4C231.78 33.76 231.466 34.3133 231.226 35.06C230.986 35.7933 230.866 36.7267 230.866 37.86C230.866 39.4333 231.12 40.7533 231.626 41.82C232.146 42.8733 232.853 43.6733 233.746 44.22C234.64 44.7533 235.666 45.02 236.826 45.02C237.733 45.02 238.54 44.9 239.246 44.66C239.953 44.4067 240.606 43.9533 241.206 43.3C241.526 43.0067 241.773 42.8067 241.946 42.7C242.12 42.5933 242.293 42.54 242.466 42.54C242.693 42.54 242.86 42.66 242.966 42.9C243.073 43.1267 243.126 43.4067 243.126 43.74C243.086 44.9667 242.673 46.1 241.886 47.14C241.1 48.1667 240.02 48.9933 238.646 49.62C237.273 50.2333 235.68 50.54 233.866 50.54C231.893 50.54 230.12 50.1467 228.546 49.36C226.986 48.5733 225.746 47.4733 224.826 46.06C223.92 44.6333 223.466 42.9467 223.466 41C223.466 38.96 223.913 37.14 224.806 35.54C225.713 33.94 226.986 32.68 228.626 31.76C230.266 30.84 232.193 30.38 234.406 30.38C236.206 30.38 237.753 30.6467 239.046 31.18C240.34 31.7133 241.333 32.44 242.026 33.36C242.72 34.2667 243.066 35.28 243.066 36.4ZM246.028 33.24L245.268 32.96C245.001 32.8533 244.801 32.72 244.668 32.56C244.548 32.4 244.488 32.2067 244.488 31.98C244.488 31.6467 244.595 31.3933 244.808 31.22C245.035 31.0333 245.328 30.94 245.688 30.94H246.868C247.081 30.94 247.281 30.8867 247.468 30.78C247.668 30.66 247.921 30.4533 248.228 30.16L251.908 26.72C252.295 26.3333 252.655 26.0467 252.988 25.86C253.321 25.6733 253.641 25.58 253.948 25.58C254.295 25.58 254.561 25.6933 254.748 25.92C254.948 26.1467 255.048 26.4733 255.048 26.9V42.96C255.048 43.9733 255.221 44.74 255.568 45.26C255.915 45.7667 256.408 46.02 257.048 46.02C257.515 46.02 257.881 45.9133 258.148 45.7C258.415 45.4733 258.628 45.2067 258.788 44.9C258.961 44.5933 259.135 44.3133 259.308 44.06C259.495 43.7933 259.728 43.62 260.008 43.54C260.235 43.5133 260.421 43.58 260.568 43.74C260.715 43.9 260.788 44.18 260.788 44.58C260.761 45.7133 260.435 46.7333 259.808 47.64C259.195 48.5333 258.341 49.24 257.248 49.76C256.168 50.28 254.921 50.54 253.508 50.54C251.361 50.54 249.708 50.0267 248.548 49C247.388 47.9733 246.808 46.42 246.808 44.34V34.38C246.808 34.0467 246.748 33.8067 246.628 33.66C246.508 33.5 246.308 33.36 246.028 33.24ZM252.268 33.4L252.308 30.94H259.468C259.828 30.94 260.115 31.02 260.328 31.18C260.541 31.3267 260.648 31.5467 260.648 31.84C260.648 32.28 260.428 32.6533 259.988 32.96C259.561 33.2533 258.861 33.4 257.888 33.4H252.268ZM272.319 31.92V46.28C272.319 46.76 272.359 47.1067 272.439 47.32C272.519 47.52 272.653 47.66 272.839 47.74L273.339 47.94C273.606 48.0467 273.799 48.1867 273.919 48.36C274.039 48.5333 274.099 48.7333 274.099 48.96C274.099 49.2933 273.993 49.5533 273.779 49.74C273.579 49.9133 273.253 50 272.799 50H263.559C263.106 50 262.773 49.9133 262.559 49.74C262.359 49.5533 262.259 49.2933 262.259 48.96C262.259 48.7333 262.313 48.5333 262.419 48.36C262.539 48.1867 262.739 48.0467 263.019 47.94L263.499 47.74C263.699 47.66 263.839 47.52 263.919 47.32C263.999 47.1067 264.039 46.76 264.039 46.28V36.08C264.039 35.7067 263.986 35.44 263.879 35.28C263.773 35.12 263.619 35.0133 263.419 34.96L262.919 34.84C262.666 34.76 262.479 34.6467 262.359 34.5C262.253 34.3533 262.199 34.16 262.199 33.92C262.199 33.6533 262.273 33.44 262.419 33.28C262.579 33.12 262.866 32.96 263.279 32.8L268.239 31.02C268.866 30.78 269.353 30.6133 269.699 30.52C270.059 30.4133 270.379 30.36 270.659 30.36C271.206 30.36 271.619 30.5067 271.899 30.8C272.179 31.0933 272.319 31.4667 272.319 31.92ZM267.799 28.7C266.346 28.7 265.193 28.3467 264.339 27.64C263.499 26.9333 263.079 25.9867 263.079 24.8C263.079 23.6267 263.499 22.6933 264.339 22C265.193 21.3067 266.346 20.96 267.799 20.96C269.239 20.96 270.386 21.3067 271.239 22C272.093 22.6933 272.519 23.6267 272.519 24.8C272.519 25.9867 272.093 26.9333 271.239 27.64C270.386 28.3467 269.239 28.7 267.799 28.7ZM287.093 30.38C289.293 30.38 291.22 30.8067 292.873 31.66C294.54 32.5 295.833 33.6867 296.753 35.22C297.673 36.74 298.133 38.5133 298.133 40.54C298.133 42.42 297.646 44.1133 296.673 45.62C295.713 47.1267 294.38 48.3267 292.673 49.22C290.98 50.1 289.013 50.54 286.773 50.54C284.56 50.54 282.626 50.1133 280.973 49.26C279.32 48.3933 278.033 47.2 277.113 45.68C276.193 44.16 275.733 42.4 275.733 40.4C275.733 38.48 276.213 36.7667 277.173 35.26C278.146 33.7533 279.48 32.5667 281.173 31.7C282.88 30.82 284.853 30.38 287.093 30.38ZM288.493 48.04C289 47.9333 289.38 47.58 289.633 46.98C289.9 46.3667 290.02 45.4867 289.993 44.34C289.966 43.18 289.773 41.7133 289.413 39.94C289.08 38.22 288.7 36.82 288.273 35.74C287.86 34.66 287.406 33.88 286.913 33.4C286.42 32.92 285.906 32.7467 285.373 32.88C284.866 32.9867 284.48 33.3467 284.213 33.96C283.96 34.56 283.846 35.4333 283.873 36.58C283.913 37.7267 284.106 39.1933 284.453 40.98C284.786 42.6867 285.166 44.0867 285.593 45.18C286.02 46.26 286.473 47.0333 286.953 47.5C287.446 47.9667 287.96 48.1467 288.493 48.04ZM310.21 31.92V46.28C310.21 46.76 310.25 47.1 310.33 47.3C310.41 47.5 310.543 47.6467 310.73 47.74L311.19 47.96C311.59 48.1733 311.79 48.4867 311.79 48.9C311.79 49.6333 311.35 50 310.47 50H301.45C300.997 50 300.663 49.9133 300.45 49.74C300.25 49.5533 300.15 49.2933 300.15 48.96C300.15 48.7333 300.203 48.5333 300.31 48.36C300.43 48.1867 300.63 48.0467 300.91 47.94L301.39 47.74C301.59 47.66 301.73 47.52 301.81 47.32C301.89 47.1067 301.93 46.76 301.93 46.28V36.08C301.93 35.7067 301.877 35.44 301.77 35.28C301.663 35.12 301.51 35.0133 301.31 34.96L300.81 34.84C300.557 34.76 300.37 34.6467 300.25 34.5C300.143 34.3533 300.09 34.16 300.09 33.92C300.09 33.6533 300.163 33.44 300.31 33.28C300.47 33.12 300.757 32.96 301.17 32.8L306.13 31.02C306.717 30.78 307.19 30.6133 307.55 30.52C307.91 30.4133 308.263 30.36 308.61 30.36C309.13 30.36 309.523 30.5067 309.79 30.8C310.07 31.0933 310.21 31.4667 310.21 31.92ZM309.51 36.74L308.45 35.62L309.09 35.04C310.89 33.3733 312.437 32.18 313.73 31.46C315.023 30.74 316.217 30.38 317.31 30.38C318.95 30.38 320.237 30.9333 321.17 32.04C322.103 33.1333 322.65 34.5933 322.81 36.42L323.79 46.28C323.843 46.76 323.897 47.1067 323.95 47.32C324.003 47.52 324.13 47.66 324.33 47.74L324.81 47.94C325.09 48.0467 325.283 48.1867 325.39 48.36C325.51 48.5333 325.57 48.7333 325.57 48.96C325.57 49.2933 325.463 49.5533 325.25 49.74C325.05 49.9133 324.723 50 324.27 50H315.15C314.27 50 313.83 49.6333 313.83 48.9C313.83 48.4867 314.023 48.1733 314.41 47.96L314.87 47.74C315.07 47.6467 315.217 47.5 315.31 47.3C315.417 47.1 315.45 46.76 315.41 46.28L314.59 37.56C314.523 36.7333 314.33 36.12 314.01 35.72C313.703 35.3067 313.23 35.1 312.59 35.1C312.19 35.1 311.783 35.1933 311.37 35.38C310.957 35.5533 310.57 35.8 310.21 36.12L309.51 36.74Z" fill="#83888F"/>
<rect width="375" height="72" fill="url(#paint0_linear_1_741)"/>
</g>
<defs>
<linearGradient id="paint0_linear_1_741" x1="0" y1="0" x2="0" y2="72" gradientUnits="userSpaceOnUse">
<stop stop-color="#FEFCF7" stop-opacity="0.01"/>
<stop offset="1" stop-color="#FEFCF7"/>
</linearGradient>
<clipPath id="clip0_1_741">
<rect width="375" height="72" fill="white"/>
</clipPath>
</defs>
</svg>
